<mxfile host="app.diagrams.net" agent="Mozilla/5.0 (Macintosh; Intel Mac OS X 10_15_7) AppleWebKit/537.36 (KHTML, like Gecko) Chrome/129.0.0.0 Safari/537.36" version="24.7.17">
  <diagram name="Page-1" id="bfe91b75-5d2c-26a0-9c1d-138518896778">
    <mxGraphModel dx="2049" dy="1087" grid="1" gridSize="10" guides="1" tooltips="1" connect="1" arrows="1" fold="1" page="1" pageScale="1" pageWidth="1100" pageHeight="850" background="none" math="0" shadow="0">
      <root>
        <mxCell id="0" />
        <mxCell id="1" parent="0" />
        <mxCell id="ic2FGAA0JDB50oxoN4fX-2" value="" style="rounded=0;whiteSpace=wrap;html=1;fillColor=none;" parent="1" vertex="1">
          <mxGeometry x="80" y="80" width="1520" height="1290" as="geometry" />
        </mxCell>
        <mxCell id="ic2FGAA0JDB50oxoN4fX-3" value="" style="rounded=0;whiteSpace=wrap;html=1;fillColor=none;dashed=1;strokeWidth=2;" parent="1" vertex="1">
          <mxGeometry x="680" y="150" width="880" height="1190" as="geometry" />
        </mxCell>
        <mxCell id="ic2FGAA0JDB50oxoN4fX-5" value="" style="rounded=0;whiteSpace=wrap;html=1;fillColor=none;dashed=1;strokeWidth=2;" parent="1" vertex="1">
          <mxGeometry x="740" y="840" width="760" height="450" as="geometry" />
        </mxCell>
        <mxCell id="ic2FGAA0JDB50oxoN4fX-20" value="" style="rounded=0;whiteSpace=wrap;html=1;fillColor=none;strokeWidth=3;" parent="1" vertex="1">
          <mxGeometry x="840" y="950" width="560" height="240" as="geometry" />
        </mxCell>
        <mxCell id="7c3789c024ecab99-53" value="Internet" style="html=1;fillColor=#CCCCCC;strokeColor=#6881B3;gradientColor=none;gradientDirection=north;strokeWidth=2;shape=mxgraph.networks.cloud;fontColor=#6881B3;rounded=0;shadow=0;comic=0;align=center;fontSize=28;" parent="1" vertex="1">
          <mxGeometry x="1759" y="689" width="330" height="140" as="geometry" />
        </mxCell>
        <mxCell id="7c3789c024ecab99-60" style="edgeStyle=none;html=1;labelBackgroundColor=none;endArrow=none;endFill=0;strokeWidth=2;fontFamily=Verdana;fontSize=28;fontColor=#6881B3;" parent="1" edge="1">
          <mxGeometry relative="1" as="geometry">
            <mxPoint x="1681.5948275862065" y="912" as="targetPoint" />
          </mxGeometry>
        </mxCell>
        <mxCell id="7c3789c024ecab99-59" style="edgeStyle=none;html=1;labelBackgroundColor=none;endArrow=none;endFill=0;strokeWidth=2;fontFamily=Verdana;fontSize=28;fontColor=#6881B3;" parent="1" edge="1">
          <mxGeometry relative="1" as="geometry">
            <mxPoint x="1683.8935281837157" y="882" as="targetPoint" />
          </mxGeometry>
        </mxCell>
        <mxCell id="ic2FGAA0JDB50oxoN4fX-1" value="" style="image;sketch=0;aspect=fixed;html=1;points=[];align=center;fontSize=12;image=img/lib/mscae/Virtual_Network.svg;" parent="1" vertex="1">
          <mxGeometry x="700" y="170" width="50" height="28.000000000000004" as="geometry" />
        </mxCell>
        <mxCell id="ic2FGAA0JDB50oxoN4fX-4" value="" style="rounded=0;whiteSpace=wrap;html=1;fillColor=none;dashed=1;strokeWidth=2;" parent="1" vertex="1">
          <mxGeometry x="740" y="220" width="760" height="450" as="geometry" />
        </mxCell>
        <mxCell id="ic2FGAA0JDB50oxoN4fX-6" value="k8s-vcn" style="text;html=1;align=center;verticalAlign=middle;whiteSpace=wrap;rounded=0;fontSize=25;" parent="1" vertex="1">
          <mxGeometry x="750" y="168" width="120" height="30" as="geometry" />
        </mxCell>
        <mxCell id="ic2FGAA0JDB50oxoN4fX-7" value="" style="image;sketch=0;aspect=fixed;html=1;points=[];align=center;fontSize=12;image=img/lib/mscae/Virtual_Network.svg;" parent="1" vertex="1">
          <mxGeometry x="750" y="242" width="50" height="28.000000000000004" as="geometry" />
        </mxCell>
        <mxCell id="ic2FGAA0JDB50oxoN4fX-8" value="k8s-public-subnet" style="text;html=1;align=center;verticalAlign=middle;whiteSpace=wrap;rounded=0;fontSize=25;" parent="1" vertex="1">
          <mxGeometry x="800" y="240" width="230" height="30" as="geometry" />
        </mxCell>
        <mxCell id="ic2FGAA0JDB50oxoN4fX-9" value="" style="image;sketch=0;aspect=fixed;html=1;points=[];align=center;fontSize=12;image=img/lib/mscae/Virtual_Network.svg;" parent="1" vertex="1">
          <mxGeometry x="750" y="862" width="50" height="28.000000000000004" as="geometry" />
        </mxCell>
        <mxCell id="ic2FGAA0JDB50oxoN4fX-10" value="k8s-private-subnet" style="text;html=1;align=center;verticalAlign=middle;whiteSpace=wrap;rounded=0;fontSize=25;" parent="1" vertex="1">
          <mxGeometry x="800" y="860" width="230" height="30" as="geometry" />
        </mxCell>
        <mxCell id="ic2FGAA0JDB50oxoN4fX-11" value="" style="aspect=fixed;sketch=0;html=1;dashed=0;whitespace=wrap;verticalLabelPosition=bottom;verticalAlign=top;fillColor=#2875E2;strokeColor=#ffffff;points=[[0.005,0.63,0],[0.1,0.2,0],[0.9,0.2,0],[0.5,0,0],[0.995,0.63,0],[0.72,0.99,0],[0.5,1,0],[0.28,0.99,0]];shape=mxgraph.kubernetes.icon2;kubernetesLabel=1;prIcon=node" parent="1" vertex="1">
          <mxGeometry x="920" y="1000" width="156.25" height="150" as="geometry" />
        </mxCell>
        <mxCell id="ic2FGAA0JDB50oxoN4fX-13" value="" style="aspect=fixed;sketch=0;html=1;dashed=0;whitespace=wrap;verticalLabelPosition=bottom;verticalAlign=top;fillColor=#2875E2;strokeColor=#ffffff;points=[[0.005,0.63,0],[0.1,0.2,0],[0.9,0.2,0],[0.5,0,0],[0.995,0.63,0],[0.72,0.99,0],[0.5,1,0],[0.28,0.99,0]];shape=mxgraph.kubernetes.icon2;kubernetesLabel=1;prIcon=control_plane" parent="1" vertex="1">
          <mxGeometry x="880" y="390" width="145.84" height="140" as="geometry" />
        </mxCell>
        <mxCell id="ic2FGAA0JDB50oxoN4fX-15" value="" style="aspect=fixed;sketch=0;html=1;dashed=0;whitespace=wrap;verticalLabelPosition=bottom;verticalAlign=top;fillColor=#2875E2;strokeColor=#ffffff;points=[[0.005,0.63,0],[0.1,0.2,0],[0.9,0.2,0],[0.5,0,0],[0.995,0.63,0],[0.72,0.99,0],[0.5,1,0],[0.28,0.99,0]];shape=mxgraph.kubernetes.icon2;kubernetesLabel=1;prIcon=api" parent="1" vertex="1">
          <mxGeometry x="1040" y="390" width="145.84" height="140" as="geometry" />
        </mxCell>
        <mxCell id="ic2FGAA0JDB50oxoN4fX-16" value="" style="aspect=fixed;sketch=0;html=1;dashed=0;whitespace=wrap;verticalLabelPosition=bottom;verticalAlign=top;fillColor=#2875E2;strokeColor=#ffffff;points=[[0.005,0.63,0],[0.1,0.2,0],[0.9,0.2,0],[0.5,0,0],[0.995,0.63,0],[0.72,0.99,0],[0.5,1,0],[0.28,0.99,0]];shape=mxgraph.kubernetes.icon2;kubernetesLabel=1;prIcon=kubelet" parent="1" vertex="1">
          <mxGeometry x="1200" y="390" width="150" height="144" as="geometry" />
        </mxCell>
        <mxCell id="ic2FGAA0JDB50oxoN4fX-17" value="" style="aspect=fixed;sketch=0;html=1;dashed=0;whitespace=wrap;verticalLabelPosition=bottom;verticalAlign=top;fillColor=#2875E2;strokeColor=#ffffff;points=[[0.005,0.63,0],[0.1,0.2,0],[0.9,0.2,0],[0.5,0,0],[0.995,0.63,0],[0.72,0.99,0],[0.5,1,0],[0.28,0.99,0]];shape=mxgraph.kubernetes.icon2;kubernetesLabel=1;prIcon=node" parent="1" vertex="1">
          <mxGeometry x="1160" y="1000" width="156.25" height="150" as="geometry" />
        </mxCell>
        <mxCell id="ic2FGAA0JDB50oxoN4fX-18" value="" style="rounded=0;whiteSpace=wrap;html=1;fillColor=none;strokeWidth=3;" parent="1" vertex="1">
          <mxGeometry x="840" y="320" width="560" height="240" as="geometry" />
        </mxCell>
        <mxCell id="ic2FGAA0JDB50oxoN4fX-19" value="k8s-cluster" style="text;html=1;align=center;verticalAlign=middle;whiteSpace=wrap;rounded=0;fontSize=25;" parent="1" vertex="1">
          <mxGeometry x="840" y="330" width="150" height="30" as="geometry" />
        </mxCell>
        <mxCell id="ic2FGAA0JDB50oxoN4fX-21" value="k8s-node-pool" style="text;html=1;align=center;verticalAlign=middle;whiteSpace=wrap;rounded=0;fontSize=25;" parent="1" vertex="1">
          <mxGeometry x="840" y="960" width="190" height="30" as="geometry" />
        </mxCell>
        <mxCell id="ic2FGAA0JDB50oxoN4fX-22" value="" style="image;sketch=0;aspect=fixed;html=1;points=[];align=center;fontSize=12;image=img/lib/mscae/Local_Network_Gateways.svg;" parent="1" vertex="1">
          <mxGeometry x="1536" y="415" width="50" height="50" as="geometry" />
        </mxCell>
        <mxCell id="ic2FGAA0JDB50oxoN4fX-23" value="" style="image;sketch=0;aspect=fixed;html=1;points=[];align=center;fontSize=12;image=img/lib/mscae/Local_Network_Gateways.svg;" parent="1" vertex="1">
          <mxGeometry x="1536" y="1080" width="50" height="50" as="geometry" />
        </mxCell>
        <mxCell id="ic2FGAA0JDB50oxoN4fX-26" value="internet-gateway" style="text;html=1;align=center;verticalAlign=middle;whiteSpace=wrap;rounded=0;fontSize=25;" parent="1" vertex="1">
          <mxGeometry x="1470" y="480" width="190" height="30" as="geometry" />
        </mxCell>
        <mxCell id="ic2FGAA0JDB50oxoN4fX-27" value="nat-gateway" style="text;html=1;align=center;verticalAlign=middle;whiteSpace=wrap;rounded=0;fontSize=25;" parent="1" vertex="1">
          <mxGeometry x="1491" y="1140" width="140" height="30" as="geometry" />
        </mxCell>
        <mxCell id="ic2FGAA0JDB50oxoN4fX-28" value="Oracle Cloud Infrastructure" style="text;html=1;align=center;verticalAlign=middle;whiteSpace=wrap;rounded=0;fontSize=25;" parent="1" vertex="1">
          <mxGeometry x="90" y="90" width="330" height="30" as="geometry" />
        </mxCell>
        <mxCell id="ic2FGAA0JDB50oxoN4fX-33" value="" style="rounded=0;whiteSpace=wrap;html=1;fillColor=none;dashed=1;strokeWidth=2;" parent="1" vertex="1">
          <mxGeometry x="120" y="150" width="410" height="1190" as="geometry" />
        </mxCell>
        <mxCell id="ic2FGAA0JDB50oxoN4fX-34" value="Oracle Service Network" style="text;html=1;align=center;verticalAlign=middle;whiteSpace=wrap;rounded=0;fontSize=25;" parent="1" vertex="1">
          <mxGeometry x="130" y="168" width="280" height="30" as="geometry" />
        </mxCell>
        <mxCell id="ic2FGAA0JDB50oxoN4fX-35" value="" style="image;sketch=0;aspect=fixed;html=1;points=[];align=center;fontSize=12;image=img/lib/mscae/ClassicStorage.svg;" parent="1" vertex="1">
          <mxGeometry x="246.75000000000003" y="320" width="143.02" height="123" as="geometry" />
        </mxCell>
        <mxCell id="ic2FGAA0JDB50oxoN4fX-36" value="Object Storage" style="text;html=1;align=center;verticalAlign=middle;whiteSpace=wrap;rounded=0;fontSize=25;" parent="1" vertex="1">
          <mxGeometry x="230.00000000000003" y="280" width="176.51" height="30" as="geometry" />
        </mxCell>
        <mxCell id="ic2FGAA0JDB50oxoN4fX-37" value="Other Services" style="text;html=1;align=center;verticalAlign=middle;whiteSpace=wrap;rounded=0;fontSize=25;" parent="1" vertex="1">
          <mxGeometry x="230.00000000000003" y="650" width="176.51" height="30" as="geometry" />
        </mxCell>
        <mxCell id="ic2FGAA0JDB50oxoN4fX-39" value="" style="endArrow=classic;startArrow=classic;html=1;rounded=0;entryX=0.5;entryY=0.08;entryDx=0;entryDy=0;entryPerimeter=0;edgeStyle=orthogonalEdgeStyle;strokeWidth=3;" parent="1" source="ic2FGAA0JDB50oxoN4fX-22" target="7c3789c024ecab99-53" edge="1">
          <mxGeometry width="50" height="50" relative="1" as="geometry">
            <mxPoint x="900" y="660" as="sourcePoint" />
            <mxPoint x="950" y="610" as="targetPoint" />
          </mxGeometry>
        </mxCell>
        <mxCell id="ic2FGAA0JDB50oxoN4fX-40" style="edgeStyle=orthogonalEdgeStyle;rounded=0;orthogonalLoop=1;jettySize=auto;html=1;entryX=0.5;entryY=1;entryDx=0;entryDy=0;entryPerimeter=0;strokeWidth=3;" parent="1" source="ic2FGAA0JDB50oxoN4fX-23" target="7c3789c024ecab99-53" edge="1">
          <mxGeometry relative="1" as="geometry" />
        </mxCell>
        <mxCell id="ic2FGAA0JDB50oxoN4fX-41" value="in bound / out bound" style="text;html=1;align=center;verticalAlign=middle;whiteSpace=wrap;rounded=0;fontSize=25;" parent="1" vertex="1">
          <mxGeometry x="1680" y="410" width="250" height="30" as="geometry" />
        </mxCell>
        <mxCell id="ic2FGAA0JDB50oxoN4fX-43" value="out bound" style="text;html=1;align=center;verticalAlign=middle;whiteSpace=wrap;rounded=0;fontSize=25;" parent="1" vertex="1">
          <mxGeometry x="1780" y="1110" width="140" height="30" as="geometry" />
        </mxCell>
        <mxCell id="E29w2QaXgqYP_3fZ8q7g-1" value="service-gateway" style="text;html=1;align=center;verticalAlign=middle;whiteSpace=wrap;rounded=0;fontSize=25;" vertex="1" parent="1">
          <mxGeometry x="590" y="750" width="200" height="30" as="geometry" />
        </mxCell>
        <mxCell id="E29w2QaXgqYP_3fZ8q7g-2" value="" style="image;sketch=0;aspect=fixed;html=1;points=[];align=center;fontSize=12;image=img/lib/mscae/Local_Network_Gateways.svg;" vertex="1" parent="1">
          <mxGeometry x="655" y="690" width="50" height="50" as="geometry" />
        </mxCell>
        <mxCell id="E29w2QaXgqYP_3fZ8q7g-4" value="" style="endArrow=classic;startArrow=classic;html=1;rounded=0;entryX=-0.023;entryY=0.489;entryDx=0;entryDy=0;entryPerimeter=0;exitX=0.992;exitY=0.474;exitDx=0;exitDy=0;exitPerimeter=0;strokeWidth=3;" edge="1" parent="1" source="ic2FGAA0JDB50oxoN4fX-33" target="E29w2QaXgqYP_3fZ8q7g-2">
          <mxGeometry width="50" height="50" relative="1" as="geometry">
            <mxPoint x="560" y="770" as="sourcePoint" />
            <mxPoint x="610" y="720" as="targetPoint" />
          </mxGeometry>
        </mxCell>
      </root>
    </mxGraphModel>
  </diagram>
</mxfile>
